<svg width="439" height="720" viewBox="0 0 439 720" fill="none" xmlns="http://www.w3.org/2000/svg">
<g style="mix-blend-mode:overlay">
<path d="M412.895 407.012H378.666C377.275 398.134 374.494 389.791 370.643 382.41C362.621 385.726 354.384 388.721 346.148 391.502C350.747 398.776 354.063 408.831 354.063 419.848C354.063 431.508 354.063 458.464 290.845 459.106C284.427 442.312 277.046 425.518 269.559 409.152C260.573 410.328 251.588 411.184 242.496 411.719C249.984 428.085 257.685 444.986 264.317 461.673C241.961 466.486 227.948 477.718 219.284 488.201C210.726 477.718 196.607 466.486 174.25 461.673C180.882 444.986 188.584 427.978 196.072 411.719C186.98 411.184 177.994 410.328 169.009 409.152C161.521 425.518 154.141 442.419 147.722 459.106C84.5045 458.464 84.5045 431.401 84.5045 419.848C84.5045 408.831 87.7135 398.776 92.4201 391.502C84.1836 388.721 76.0541 385.726 67.9245 382.41C64.0737 389.684 61.2925 398.027 59.9019 407.012H25.6723V362.514C17.0079 357.807 8.45045 352.887 0 347.645V577.091H130.073C137.774 646.406 191.793 686.412 219.284 720C246.668 686.519 300.686 646.299 308.495 577.091H438.568V347.645C430.117 352.887 421.56 357.914 412.895 362.514V407.012ZM129.431 535.481L129.324 539.01C129.217 543.075 129.11 547.247 129.003 551.419H25.6723V432.685H59.9019C64.1806 457.287 82.9 481.676 138.951 484.564C133.496 502.321 129.859 519.542 129.431 535.481ZM206.448 663.093C170.934 629.184 159.382 602.228 156.066 577.091H206.448V663.093ZM206.448 551.419H154.675C154.675 547.568 154.782 543.61 154.996 539.759L155.103 536.229C155.531 521.147 159.489 504.139 165.372 486.168C194.895 491.303 204.415 510.878 206.448 516.119V551.419ZM232.12 663.093V577.091H282.502C279.186 602.228 267.633 629.184 232.12 663.093ZM232.12 551.419V516.119C234.259 510.664 243.779 491.303 273.196 486.168C279.079 504.032 283.037 521.147 283.464 536.229L283.571 539.759C283.678 543.717 283.785 547.568 283.892 551.419H232.12ZM412.895 551.419H309.565C309.565 547.247 309.351 543.075 309.244 539.01L309.137 535.481C308.709 519.542 305.072 502.321 299.617 484.564C355.561 481.676 374.28 457.287 378.666 432.685H412.895V551.419Z" fill="white" fill-opacity="0.2"/>
<path d="M416.746 78.7281C390.005 95.9499 349.464 122.05 331.921 190.937C321.545 231.585 311.49 379.2 311.49 379.2H329.461C335.13 379.2 341.441 383.907 346.148 391.502C354.384 388.721 362.514 385.725 370.643 382.409C363.904 369.68 353.849 359.946 342.297 355.774C342.725 285.925 347.538 233.938 356.845 197.248C368.611 151.038 391.074 128.04 412.896 112.209V362.406C421.56 357.7 430.117 352.779 438.568 347.538V64.7153L416.746 78.7281Z" fill="white" fill-opacity="0.2"/>
<path d="M25.6723 112.316C47.3867 128.147 69.9569 151.038 81.7233 197.355C91.0295 234.045 95.8431 286.032 96.271 355.882C84.7184 360.053 74.6635 369.68 67.9245 382.516C75.9471 385.832 84.1836 388.828 92.4201 391.609C97.2337 384.014 103.438 379.307 109.107 379.307H127.078C127.078 379.307 116.916 231.692 106.647 191.044C89.1041 122.05 48.6703 96.0569 21.8214 78.8351L0 64.7154V347.645C8.45045 352.886 17.0079 357.914 25.6723 362.513V112.316Z" fill="white" fill-opacity="0.2"/>
<path d="M199.594 404.124C206.868 388.293 213.821 373.317 219.276 359.625C224.839 373.317 231.685 388.186 238.958 404.124C240.135 406.584 241.312 409.151 242.381 411.719C251.474 411.184 260.459 410.328 269.444 409.152C266.984 403.803 264.631 398.562 262.17 393.32C246.66 359.518 237.889 327.642 237.889 311.276C237.889 311.276 251.688 114.455 242.702 54.5535C240.028 36.476 219.169 0 219.169 0C219.169 0 198.311 36.476 195.636 54.5535C186.651 114.455 200.45 311.276 200.45 311.276C200.45 327.642 191.679 359.625 176.168 393.32C173.815 398.562 171.355 403.803 168.895 409.152C177.88 410.328 186.865 411.184 195.957 411.719C197.241 409.151 198.418 406.584 199.594 404.124Z" fill="white" fill-opacity="0.2"/>
</g>
</svg>
