<?xml version="1.0" standalone="no"?>
<!DOCTYPE svg PUBLIC "-//W3C//DTD SVG 20010904//EN"
 "http://www.w3.org/TR/2001/REC-SVG-20010904/DTD/svg10.dtd">
<svg version="1.0" xmlns="http://www.w3.org/2000/svg"
 width="328.000000pt" height="328.000000pt" viewBox="0 0 328.000000 328.000000"
 preserveAspectRatio="xMidYMid meet">
<metadata>
Created by potrace 1.14, written by Peter Selinger 2001-2017
</metadata>
<g transform="translate(0.000000,328.000000) scale(0.100000,-0.100000)"
fill="#000000" stroke="none">
<path d="M0 1640 l0 -1640 1640 0 1640 0 0 1640 0 1640 -1640 0 -1640 0 0
-1640z m1650 1400 c0 -11 -4 -20 -9 -20 -5 0 -7 9 -4 20 3 11 7 20 9 20 2 0 4
-9 4 -20z m26 -36 c-3 -9 -6 -18 -6 -20 0 -2 -4 -4 -9 -4 -5 0 -7 9 -4 20 3
11 10 20 15 20 6 0 7 -7 4 -16z m-146 -53 c0 -30 -19 -45 -45 -35 -31 12 -12
40 43 63 1 1 2 -12 2 -28z m70 -60 c0 -40 14 -61 42 -61 21 0 25 -39 6 -58 -9
-9 -8 -20 1 -50 7 -21 12 -44 10 -52 -1 -8 1 -48 5 -88 5 -45 4 -77 -2 -85 -5
-6 -12 -21 -15 -32 -2 -11 -5 31 -6 92 -1 108 -2 113 -26 129 -25 16 -36 64
-14 64 21 0 3 45 -23 58 -28 13 -36 36 -18 47 6 4 8 15 5 25 -7 23 12 63 26
55 5 -4 9 -23 9 -44z m-820 -106 c0 -36 -32 -50 -59 -26 -17 15 -19 21 -9 27
7 5 21 7 31 6 9 -2 17 2 17 7 0 6 5 11 10 11 6 0 10 -11 10 -25z m1797 5 c27
0 29 -12 7 -35 -14 -13 -19 -14 -36 -3 -11 7 -19 16 -19 21 1 4 1 15 1 24 0
13 3 14 12 5 7 -7 22 -12 35 -12z m-797 -41 c0 -12 8 -23 19 -26 54 -14 5 -67
-52 -56 -20 4 -27 1 -27 -11 0 -9 -4 -16 -9 -16 -11 0 -21 25 -21 51 0 24 27
25 33 2 3 -12 5 -10 6 7 1 28 26 70 42 70 5 0 9 -9 9 -21z m-987 -71 c-5 -15
-27 -23 -23 -8 8 39 14 50 20 40 4 -7 5 -21 3 -32z m1750 -11 c-3 -5 -12 -2
-20 6 -9 8 -12 20 -8 27 5 8 11 6 20 -7 7 -10 11 -22 8 -26z m-1734 -33 c29
-6 31 -9 31 -50 0 -24 5 -44 10 -44 6 0 10 -9 10 -20 0 -11 5 -20 10 -20 6 0
10 -11 10 -25 0 -14 5 -25 10 -25 6 0 10 -13 10 -30 0 -20 5 -30 15 -30 8 0
15 5 15 12 0 6 2 9 5 6 3 -2 -6 -26 -19 -51 l-23 -47 -7 62 c-3 34 -11 67 -16
72 -6 6 -10 20 -10 33 0 13 -4 23 -10 23 -5 0 -10 7 -10 15 0 9 -11 28 -25 43
-14 15 -28 37 -31 49 -3 12 -16 24 -27 26 l-22 4 21 2 c12 0 36 -2 53 -5z
m1721 -14 c0 -11 -9 -28 -20 -37 -11 -10 -20 -23 -20 -30 0 -7 -4 -13 -10 -13
-5 0 -10 -9 -10 -20 0 -11 -4 -20 -10 -20 -5 0 -10 -11 -10 -25 0 -14 -4 -25
-10 -25 -5 0 -10 -11 -10 -24 0 -13 -7 -39 -15 -57 -14 -32 -15 -33 -21 -11
-3 12 -10 22 -15 22 -5 0 -9 8 -9 18 1 16 1 16 11 -1 14 -24 29 -12 29 24 0
16 5 29 10 29 6 0 10 11 10 25 0 14 3 25 8 25 14 0 32 54 32 97 0 41 1 43 30
43 23 0 30 -4 30 -20z m-793 -24 c-9 -23 -70 -22 -65 1 3 19 48 35 62 22 5 -4
6 -15 3 -23z m593 -7 c0 -5 -11 -9 -25 -9 -28 0 -34 16 -7 23 20 4 32 -1 32
-14z m-1300 1 c0 -5 -11 -10 -25 -10 -14 0 -25 5 -25 10 0 6 11 10 25 10 14 0
25 -4 25 -10z m-1 -56 c1 -2 -8 -15 -22 -30 l-25 -27 -31 22 c-36 26 -39 41
-12 48 13 3 18 10 13 21 -4 12 4 10 34 -8 21 -13 41 -25 43 -26z m1327 31 c-3
-8 -2 -15 2 -15 4 0 14 -4 22 -10 12 -7 9 -13 -15 -34 -17 -14 -33 -26 -36
-26 -11 0 -52 50 -46 57 12 11 62 42 71 42 4 1 6 -6 2 -14z m-826 -84 c0 -21
-6 -30 -22 -35 -47 -12 -58 -8 -58 24 0 20 5 30 15 30 9 0 18 7 21 15 10 25
44 -1 44 -34z m60 -43 c-1 -31 -1 -32 -15 -14 -19 25 -19 46 0 46 10 0 15 -10
15 -32z m-790 14 c0 -15 -11 -21 -27 -15 -12 5 -12 7 -1 14 17 11 28 11 28 1z
m1735 2 c13 -5 14 -8 3 -15 -19 -13 -28 -11 -28 6 0 17 2 18 25 9z m-1756 -55
c14 23 21 -15 8 -43 -12 -26 -27 -35 -27 -16 0 6 -7 10 -15 10 -7 0 -18 8 -24
17 -12 23 17 47 37 30 10 -8 16 -7 21 2z m1772 -4 c8 2 20 1 27 -3 16 -10 5
-42 -14 -42 -8 0 -14 -4 -14 -10 0 -21 -18 -9 -30 19 -12 30 -4 64 10 42 3 -7
13 -9 21 -6z m-935 -19 c18 -19 18 -37 -1 -31 -49 16 -48 15 -35 30 15 18 18
19 36 1z m164 -15 c0 -5 9 -11 20 -14 31 -8 25 -37 -7 -37 -43 0 -57 13 -44
39 12 21 31 29 31 12z m-120 -60 c0 -17 -4 -33 -10 -36 -6 -4 -10 8 -10 29 0
20 5 36 10 36 6 0 10 -13 10 -29z m63 9 c3 -10 -1 -24 -9 -31 -11 -9 -14 -6
-14 20 0 34 15 42 23 11z m694 -2 c-3 -8 -6 -5 -6 6 -1 11 2 17 5 13 3 -3 4
-12 1 -19z m-1537 -50 c0 -16 -3 -19 -11 -11 -6 6 -8 16 -5 22 11 17 16 13 16
-11z m1562 -10 c-9 -9 -12 -7 -12 12 0 19 3 21 12 12 9 -9 9 -15 0 -24z m87
-7 c0 -15 -3 -20 -6 -11 -3 8 -10 23 -15 32 -6 14 -5 16 7 12 8 -4 15 -18 14
-33z m-1742 -8 c-3 -10 -5 -4 -5 12 0 17 2 24 5 18 2 -7 2 -21 0 -30z m922 13
c10 -12 8 -15 -11 -18 -14 -2 -24 -12 -28 -28 -6 -25 -7 -25 -14 -3 -14 44 26
81 53 49z m-859 -145 c-8 -24 -8 -24 -9 -4 -1 16 -10 25 -33 32 -22 6 -26 10
-12 10 26 1 44 19 45 46 1 11 5 2 9 -19 4 -22 4 -51 0 -65z m711 77 c11 -11
19 -24 19 -27 0 -9 -51 -31 -72 -31 -24 0 -23 27 2 42 11 7 20 18 20 25 0 19
10 16 31 -9z m938 -35 l24 -11 -24 -4 c-15 -2 -25 -12 -29 -28 -10 -44 -22 7
-14 59 6 39 9 42 14 21 3 -14 16 -30 29 -37z m-705 -38 c3 -8 13 -15 23 -15
20 0 48 -49 35 -62 -9 -9 -34 -12 -79 -10 -30 2 -33 5 -33 32 0 53 39 93 54
55z m-134 -57 c0 -5 -9 -8 -20 -8 -23 0 -25 6 -7 24 12 13 26 4 27 -16z m55
-37 c3 -5 1 -12 -5 -16 -5 -3 -10 1 -10 9 0 18 6 21 15 7z m-840 -32 c14 -22
-6 -21 -25 1 -11 13 -20 25 -20 27 0 7 39 -17 45 -28z m159 12 c21 -34 -47
-68 -71 -36 -7 11 -13 22 -13 26 0 16 75 25 84 10z m1312 1 c18 -11 -2 -52
-25 -52 -31 0 -61 36 -44 53 9 9 55 9 69 -1z m124 -1 c0 -11 -31 -24 -39 -16
-3 3 1 10 9 15 19 12 30 12 30 1z m-1023 -47 c-3 -3 -12 -4 -19 -1 -8 3 -5 6
6 6 11 1 17 -2 13 -5z m268 -10 c-11 -8 -28 -21 -37 -29 -17 -14 -18 -12 -18
15 0 28 2 30 38 30 35 -1 36 -1 17 -16z m702 -16 c-3 -8 -6 -5 -6 6 -1 11 2
17 5 13 3 -3 4 -12 1 -19z m-899 -24 c17 -18 15 -59 -4 -75 -21 -17 -90 -17
-106 0 -10 11 -10 14 0 18 6 3 12 16 12 30 0 22 3 24 25 19 20 -5 25 -3 25 13
0 15 4 19 18 14 9 -4 23 -12 30 -19z m-621 -6 c-3 -8 -6 -5 -6 6 -1 11 2 17 5
13 3 -3 4 -12 1 -19z m-117 -38 c0 -29 -21 -70 -37 -70 -8 0 -26 12 -40 26
-24 24 -25 27 -9 36 10 6 27 8 37 5 12 -3 22 0 26 9 8 21 23 17 23 -6z m1065
-27 c3 -9 11 -10 30 -3 23 9 25 7 25 -18 0 -16 5 -33 11 -39 8 -8 2 -14 -25
-22 -55 -15 -106 9 -106 49 0 36 53 93 58 63 2 -10 5 -24 7 -30z m709 31 c3
-8 10 -13 15 -9 6 3 21 3 35 -1 22 -5 24 -9 15 -26 -6 -10 -22 -23 -36 -29
-31 -11 -52 10 -53 54 0 29 14 37 24 11z m-1504 -173 c0 -11 -13 -29 -28 -39
l-28 -20 -17 21 c-31 38 -19 51 51 56 16 1 22 -5 22 -18z m1269 13 c35 -7 39
-22 13 -52 l-18 -21 -26 22 c-54 47 -43 65 31 51z m-657 -89 c0 -5 -5 -11 -11
-13 -6 -2 -11 4 -11 13 0 9 5 15 11 13 6 -2 11 -8 11 -13z m-623 -201 c28 -6
46 -34 21 -34 -5 0 -10 -5 -10 -11 0 -15 -41 -48 -60 -49 -19 0 -70 56 -70 77
0 11 7 13 30 8 19 -4 30 -3 30 4 0 13 14 14 59 5z m1291 -5 c0 -6 12 -9 27 -7
37 4 38 -12 4 -50 -37 -40 -53 -40 -91 -1 -35 37 -40 64 -10 56 11 -3 20 -1
20 4 0 5 11 9 25 9 14 0 25 -5 25 -11z m-930 -64 c8 -1 27 -8 43 -15 24 -12
27 -19 27 -63 0 -54 -16 -76 -57 -77 -12 0 -25 -4 -28 -10 -9 -14 -94 -12
-110 3 -7 6 -22 20 -34 29 -11 10 -21 22 -21 28 0 15 89 100 106 100 8 0 14 5
14 11 0 6 9 8 23 3 12 -4 29 -8 37 -9z m-602 -51 c-2 -13 -12 -19 -32 -19 -39
0 -44 20 -9 39 31 16 47 8 41 -20z m1224 9 c9 -8 28 -15 42 -15 18 0 28 -8 35
-29 5 -16 17 -29 25 -29 20 0 20 -4 0 -43 -19 -35 -38 -57 -51 -57 -5 0 -15
-6 -22 -12 -14 -15 -81 -18 -81 -4 0 4 -17 6 -37 4 -44 -6 -92 15 -94 40 -4
39 -6 48 -13 64 -6 13 0 27 21 51 16 18 34 32 40 30 5 -2 16 4 24 13 16 19 84
12 111 -13z m532 11 c9 -3 16 -15 16 -25 0 -14 -7 -19 -30 -19 -25 0 -30 4
-30 25 0 25 13 31 44 19z m-830 -199 c3 -8 11 -15 18 -15 30 -1 53 -53 54
-127 1 -71 1 -71 -28 -77 -15 -3 -28 -12 -28 -20 0 -13 -21 -27 -45 -31 -5 0
-18 -5 -28 -9 -42 -20 -137 51 -137 102 0 15 -5 33 -12 40 -8 8 -8 15 1 26 9
11 9 15 -1 20 -10 5 -10 7 0 12 6 3 12 10 12 16 0 18 49 58 64 52 7 -3 16 2
19 10 9 22 102 22 111 1z m-740 -31 c6 -15 8 -15 31 0 30 20 35 20 35 1 0 -9
9 -15 21 -15 31 0 22 -44 -11 -49 -14 -1 -27 -7 -30 -11 -3 -4 -13 -10 -24
-12 -22 -4 -62 63 -52 87 7 20 22 19 30 -1z m1310 1 c21 -14 24 -14 29 0 4 8
11 15 16 15 18 0 19 -28 1 -68 -15 -33 -22 -40 -39 -35 -12 3 -21 9 -21 14 0
4 -12 9 -27 11 -35 4 -48 48 -14 48 12 0 21 6 21 15 0 19 5 19 34 0z m-1494
-40 c0 -13 -4 -27 -10 -30 -5 -3 -10 -18 -10 -32 0 -22 -3 -24 -26 -19 -56 14
-111 76 -68 76 9 0 23 8 30 18 12 16 13 16 19 0 10 -24 32 -23 40 2 8 26 25
16 25 -15z m1746 -5 c4 0 16 7 26 16 16 16 18 16 24 0 3 -9 15 -16 25 -16 41
0 14 -42 -44 -67 -40 -18 -41 -18 -56 32 -15 50 -6 99 10 58 4 -13 12 -23 15
-23z"/>
<path d="M1330 1250 c0 -5 7 -7 15 -4 8 4 15 8 15 10 0 2 -7 4 -15 4 -8 0 -15
-4 -15 -10z"/>
<path d="M1955 1200 c11 -5 34 -9 50 -9 23 -1 26 2 15 9 -8 5 -31 9 -50 9 -29
0 -31 -2 -15 -9z"/>
<path d="M1620 1000 c-36 -36 -19 -70 36 -70 32 0 44 13 44 50 0 18 -27 40
-49 40 -6 0 -20 -9 -31 -20z"/>
</g>
</svg>
